<svg width="37" height="32" viewBox="0 0 37 32" fill="none" xmlns="http://www.w3.org/2000/svg">
<path d="M21.3513 4.56063L21.3522 4.5597C24.3409 1.51158 29.0507 1.13262 32.1197 3.71732C35.7569 6.78641 35.9527 12.3083 32.6887 15.6376L32.6883 15.638L18.7055 29.9088C18.5864 30.0304 18.4075 30.0304 18.2883 29.9088L4.30641 15.6389C4.30623 15.6387 4.30606 15.6386 4.30588 15.6384C4.30577 15.6383 4.30567 15.6382 4.30556 15.638C1.0481 12.3085 1.24425 6.78627 4.8814 3.71727C7.95125 1.13197 12.6672 1.51275 15.6475 4.55828L15.6498 4.56063L17.0734 6.01061L18.5005 7.46417L19.9277 6.01061L21.3513 4.56063Z" fill="white" stroke="white" stroke-width="4"/>
</svg>
