<svg width="36" height="36" viewBox="0 0 36 36" fill="none" xmlns="http://www.w3.org/2000/svg">
<path d="M17.9999 0C8.05633 0 -0.00012207 8.05645 -0.00012207 18C-0.00012207 27.9435 8.05633 36 17.9999 36C27.9434 36 35.9999 27.9435 35.9999 18C35.9999 8.05645 27.9434 0 17.9999 0ZM22.1442 25.4105L15.7426 20.7581C15.5176 20.5911 15.387 20.3298 15.387 20.054V7.83871C15.387 7.35968 15.7789 6.96774 16.2579 6.96774H19.7418C20.2208 6.96774 20.6128 7.35968 20.6128 7.83871V17.8331L25.2217 21.1863C25.6136 21.4694 25.6934 22.0137 25.4104 22.4056L23.3636 25.2218C23.0805 25.6065 22.5362 25.6935 22.1442 25.4105Z" fill="white"/>
</svg>
