<svg width="150" height="51" viewBox="0 0 150 51" fill="none" xmlns="http://www.w3.org/2000/svg">
<g filter="url(#filter0_d_28_56)">
<path d="M36.5455 29.648C36.7535 29.648 36.9135 29.744 37.0255 29.936C37.1535 30.128 37.2175 30.392 37.2175 30.728C37.2175 31.352 37.0655 31.848 36.7615 32.216C35.1775 34.152 33.4895 35.12 31.6975 35.12C30.1455 35.12 28.9055 34.52 27.9775 33.32C27.0495 32.12 26.5855 30.4 26.5855 28.16C26.5855 27.616 26.6095 27.072 26.6575 26.528C25.6015 26.72 24.4495 26.864 23.2015 26.96C22.3695 27.024 21.8015 27.064 21.4975 27.08C21.1775 28.712 20.7295 30.712 20.1535 33.08C19.8175 34.472 19.1775 35.168 18.2335 35.168C17.2095 35.168 16.6975 34.704 16.6975 33.776C16.6975 33.568 16.7375 33.28 16.8175 32.912C17.3615 30.72 17.7935 28.864 18.1135 27.344L16.9615 27.392C16.4335 27.392 16.0495 27.304 15.8095 27.128C15.5695 26.936 15.4495 26.632 15.4495 26.216C15.4495 25.688 15.6015 25.304 15.9055 25.064C16.2095 24.808 16.7135 24.664 17.4175 24.632L18.6895 24.584C19.1055 22.328 19.3135 20.608 19.3135 19.424C19.3135 18.672 19.2015 18.16 18.9775 17.888C18.7535 17.616 18.4575 17.48 18.0895 17.48C16.9695 17.48 15.7055 18.416 14.2975 20.288C14.0895 20.56 13.8575 20.696 13.6015 20.696C13.3775 20.696 13.1855 20.592 13.0255 20.384C12.8655 20.176 12.7855 19.912 12.7855 19.592C12.7855 19.096 12.9855 18.568 13.3855 18.008C14.0895 17.032 14.9775 16.232 16.0495 15.608C17.1215 14.968 18.2095 14.648 19.3135 14.648C20.3535 14.648 21.1535 15.008 21.7135 15.728C22.2895 16.432 22.5775 17.536 22.5775 19.04C22.5775 20.368 22.3855 22.168 22.0015 24.44L24.3535 24.32C25.3615 24.272 26.2255 24.192 26.9455 24.08C27.2335 22.32 27.6735 20.672 28.2655 19.136C28.8575 17.6 29.5935 16.352 30.4735 15.392C31.3535 14.432 32.3375 13.952 33.4255 13.952C34.2255 13.952 34.8575 14.272 35.3215 14.912C35.7855 15.536 36.0175 16.36 36.0175 17.384C36.0175 21.352 33.9935 24.104 29.9455 25.64C29.8975 26.28 29.8735 26.944 29.8735 27.632C29.8735 29.312 30.0815 30.504 30.4975 31.208C30.9135 31.912 31.4975 32.264 32.2495 32.264C32.9055 32.264 33.5055 32.096 34.0495 31.76C34.5935 31.408 35.2095 30.816 35.8975 29.984C36.0895 29.76 36.3055 29.648 36.5455 29.648ZM33.3055 16.04C32.9535 16.04 32.5775 16.36 32.1775 17C31.7935 17.64 31.4255 18.512 31.0735 19.616C30.7215 20.72 30.4415 21.928 30.2335 23.24C31.5135 22.712 32.4575 21.96 33.0655 20.984C33.6735 20.008 33.9775 18.752 33.9775 17.216C33.9775 16.848 33.9135 16.56 33.7855 16.352C33.6575 16.144 33.4975 16.04 33.3055 16.04ZM48.7958 29.648C49.0038 29.648 49.1638 29.744 49.2758 29.936C49.4038 30.128 49.4678 30.392 49.4678 30.728C49.4678 31.368 49.3158 31.864 49.0118 32.216C48.4198 32.936 47.5798 33.6 46.4918 34.208C45.4198 34.816 44.2678 35.12 43.0358 35.12C41.3558 35.12 40.0518 34.664 39.1238 33.752C38.1958 32.84 37.7318 31.592 37.7318 30.008C37.7318 28.904 37.9638 27.88 38.4278 26.936C38.8918 25.976 39.5318 25.216 40.3478 24.656C41.1798 24.096 42.1158 23.816 43.1558 23.816C44.0838 23.816 44.8278 24.096 45.3878 24.656C45.9478 25.2 46.2278 25.944 46.2278 26.888C46.2278 27.992 45.8278 28.944 45.0278 29.744C44.2438 30.528 42.9078 31.152 41.0198 31.616C41.4198 32.352 42.1798 32.72 43.2998 32.72C44.0198 32.72 44.8358 32.472 45.7478 31.976C46.6758 31.464 47.4758 30.8 48.1478 29.984C48.3398 29.76 48.5558 29.648 48.7958 29.648ZM42.7478 26.168C42.1558 26.168 41.6518 26.512 41.2358 27.2C40.8358 27.888 40.6358 28.72 40.6358 29.696V29.744C41.5798 29.52 42.3238 29.184 42.8678 28.736C43.4118 28.288 43.6838 27.768 43.6838 27.176C43.6838 26.872 43.5958 26.632 43.4198 26.456C43.2598 26.264 43.0358 26.168 42.7478 26.168ZM56.3097 29.648C56.5177 29.648 56.6777 29.744 56.7897 29.936C56.9177 30.128 56.9817 30.392 56.9817 30.728C56.9817 31.368 56.8297 31.864 56.5257 32.216C55.8377 33.064 55.0857 33.76 54.2697 34.304C53.4697 34.848 52.5577 35.12 51.5337 35.12C50.1257 35.12 49.0777 34.48 48.3897 33.2C47.7177 31.92 47.3817 30.264 47.3817 28.232C47.3817 26.28 47.6297 24.056 48.1257 21.56C48.6377 19.064 49.3817 16.92 50.3577 15.128C51.3497 13.336 52.5257 12.44 53.8857 12.44C54.6537 12.44 55.2537 12.8 55.6857 13.52C56.1337 14.224 56.3577 15.24 56.3577 16.568C56.3577 18.472 55.8297 20.68 54.7737 23.192C53.7177 25.704 52.2857 28.192 50.4777 30.656C50.5897 31.312 50.7737 31.784 51.0297 32.072C51.2857 32.344 51.6217 32.48 52.0377 32.48C52.6937 32.48 53.2697 32.296 53.7657 31.928C54.2617 31.544 54.8937 30.896 55.6617 29.984C55.8537 29.76 56.0697 29.648 56.3097 29.648ZM53.3577 14.816C52.9897 14.816 52.5737 15.48 52.1097 16.808C51.6457 18.136 51.2377 19.784 50.8857 21.752C50.5337 23.72 50.3417 25.608 50.3097 27.416C51.4457 25.544 52.3497 23.672 53.0217 21.8C53.6937 19.912 54.0297 18.192 54.0297 16.64C54.0297 15.424 53.8057 14.816 53.3577 14.816ZM63.8378 29.648C64.0458 29.648 64.2058 29.744 64.3178 29.936C64.4458 30.128 64.5098 30.392 64.5098 30.728C64.5098 31.368 64.3578 31.864 64.0538 32.216C63.3658 33.064 62.6138 33.76 61.7978 34.304C60.9978 34.848 60.0858 35.12 59.0618 35.12C57.6538 35.12 56.6058 34.48 55.9178 33.2C55.2458 31.92 54.9098 30.264 54.9098 28.232C54.9098 26.28 55.1578 24.056 55.6538 21.56C56.1658 19.064 56.9098 16.92 57.8858 15.128C58.8778 13.336 60.0538 12.44 61.4138 12.44C62.1818 12.44 62.7818 12.8 63.2138 13.52C63.6618 14.224 63.8858 15.24 63.8858 16.568C63.8858 18.472 63.3578 20.68 62.3018 23.192C61.2458 25.704 59.8138 28.192 58.0058 30.656C58.1178 31.312 58.3018 31.784 58.5578 32.072C58.8138 32.344 59.1498 32.48 59.5658 32.48C60.2218 32.48 60.7978 32.296 61.2938 31.928C61.7898 31.544 62.4218 30.896 63.1898 29.984C63.3818 29.76 63.5978 29.648 63.8378 29.648ZM60.8858 14.816C60.5178 14.816 60.1018 15.48 59.6378 16.808C59.1738 18.136 58.7658 19.784 58.4138 21.752C58.0618 23.72 57.8698 25.608 57.8378 27.416C58.9738 25.544 59.8778 23.672 60.5498 21.8C61.2218 19.912 61.5578 18.192 61.5578 16.64C61.5578 15.424 61.3338 14.816 60.8858 14.816ZM66.326 35.12C65.382 35.12 64.574 34.888 63.902 34.424C63.246 33.944 62.75 33.32 62.414 32.552C62.078 31.784 61.91 30.96 61.91 30.08C61.91 28.864 62.134 27.784 62.582 26.84C63.046 25.88 63.67 25.136 64.454 24.608C65.238 24.064 66.118 23.792 67.094 23.792C68.038 23.792 68.846 24.032 69.518 24.512C70.19 24.976 70.694 25.592 71.03 26.36C71.366 27.128 71.534 27.952 71.534 28.832C71.534 30.048 71.302 31.136 70.838 32.096C70.374 33.04 69.742 33.784 68.942 34.328C68.158 34.856 67.286 35.12 66.326 35.12ZM66.59 32.528C67.134 32.528 67.59 32.232 67.958 31.64C68.342 31.048 68.534 30.184 68.534 29.048C68.534 28.168 68.374 27.504 68.054 27.056C67.734 26.608 67.35 26.384 66.902 26.384C66.326 26.384 65.846 26.68 65.462 27.272C65.094 27.848 64.91 28.712 64.91 29.864C64.91 30.776 65.07 31.448 65.39 31.88C65.71 32.312 66.11 32.528 66.59 32.528ZM73.229 38.792C72.877 38.792 72.597 38.712 72.389 38.552C72.181 38.392 72.077 38.136 72.077 37.784C72.077 37.64 72.101 37.472 72.149 37.28C72.325 36.544 72.453 35.864 72.533 35.24C72.629 34.616 72.677 33.92 72.677 33.152C72.677 32.352 72.861 31.736 73.229 31.304C73.613 30.872 74.101 30.656 74.693 30.656C75.269 30.656 75.701 30.816 75.989 31.136C76.293 31.44 76.445 31.856 76.445 32.384C76.445 32.944 76.277 33.688 75.941 34.616C75.605 35.544 75.197 36.448 74.717 37.328C74.397 37.92 74.141 38.312 73.949 38.504C73.773 38.696 73.533 38.792 73.229 38.792ZM104.441 19.64C104.441 21 103.961 22.176 103.001 23.168C102.041 24.144 100.641 24.848 98.8006 25.28C99.7926 25.552 100.545 26 101.057 26.624C101.569 27.232 101.825 27.936 101.825 28.736C101.825 30 101.425 31.096 100.625 32.024C99.8406 32.952 98.6886 33.672 97.1686 34.184C95.6486 34.68 93.8166 34.928 91.6726 34.928C90.8726 34.928 90.2326 34.904 89.7526 34.856C89.7366 35.304 89.5446 35.64 89.1766 35.864C88.8086 36.088 88.3366 36.2 87.7606 36.2C87.1846 36.2 86.7846 36.072 86.5606 35.816C86.3526 35.56 86.2646 35.184 86.2966 34.688C86.4406 32.448 86.7206 30.104 87.1366 27.656C87.5526 25.192 88.0806 22.816 88.7206 20.528C88.8326 20.128 89.0566 19.848 89.3926 19.688C89.7286 19.528 90.1686 19.448 90.7126 19.448C91.6886 19.448 92.1766 19.72 92.1766 20.264C92.1766 20.488 92.1286 20.744 92.0326 21.032C91.6166 22.28 91.2006 23.976 90.7846 26.12C90.3686 28.248 90.0726 30.28 89.8966 32.216C90.6646 32.28 91.2886 32.312 91.7686 32.312C94.0086 32.312 95.6486 31.992 96.6886 31.352C97.7446 30.696 98.2726 29.864 98.2726 28.856C98.2726 28.152 97.9686 27.56 97.3606 27.08C96.7686 26.6 95.7686 26.336 94.3606 26.288C94.0406 26.272 93.8166 26.192 93.6886 26.048C93.5606 25.904 93.4966 25.672 93.4966 25.352C93.4966 24.888 93.5926 24.512 93.7846 24.224C93.9766 23.936 94.3286 23.784 94.8406 23.768C95.9766 23.736 97.0006 23.568 97.9126 23.264C98.8406 22.96 99.5686 22.536 100.097 21.992C100.625 21.432 100.889 20.784 100.889 20.048C100.889 19.12 100.433 18.392 99.5206 17.864C98.6086 17.32 97.2086 17.048 95.3206 17.048C93.6086 17.048 91.9526 17.272 90.3526 17.72C88.7526 18.152 87.3926 18.704 86.2726 19.376C85.7606 19.68 85.3286 19.832 84.9766 19.832C84.6886 19.832 84.4646 19.736 84.3046 19.544C84.1606 19.336 84.0886 19.08 84.0886 18.776C84.0886 18.376 84.1686 18.032 84.3286 17.744C84.5046 17.456 84.9126 17.128 85.5526 16.76C86.8966 15.992 88.4726 15.392 90.2806 14.96C92.0886 14.528 93.9366 14.312 95.8246 14.312C98.7206 14.312 100.881 14.8 102.305 15.776C103.729 16.752 104.441 18.04 104.441 19.64ZM106.291 35.12C105.571 35.12 104.979 34.792 104.515 34.136C104.067 33.464 103.843 32.632 103.843 31.64C103.843 30.44 103.923 29.344 104.083 28.352C104.243 27.344 104.507 26.28 104.875 25.16C105.035 24.68 105.259 24.336 105.547 24.128C105.835 23.92 106.291 23.816 106.915 23.816C107.267 23.816 107.507 23.872 107.635 23.984C107.779 24.096 107.851 24.264 107.851 24.488C107.851 24.616 107.763 25.048 107.587 25.784C107.427 26.376 107.299 26.912 107.203 27.392C106.883 29.072 106.723 30.192 106.723 30.752C106.723 31.088 106.763 31.328 106.843 31.472C106.923 31.6 107.051 31.664 107.227 31.664C107.467 31.664 107.763 31.424 108.115 30.944C108.483 30.464 108.867 29.736 109.267 28.76C109.683 27.784 110.083 26.584 110.467 25.16C110.595 24.68 110.787 24.336 111.043 24.128C111.315 23.92 111.715 23.816 112.243 23.816C112.611 23.816 112.867 23.864 113.011 23.96C113.155 24.04 113.227 24.2 113.227 24.44C113.227 24.84 113.027 25.936 112.627 27.728C112.179 29.776 111.955 31.04 111.955 31.52C111.955 31.824 112.019 32.064 112.147 32.24C112.275 32.4 112.443 32.48 112.651 32.48C112.971 32.48 113.347 32.288 113.779 31.904C114.227 31.504 114.819 30.864 115.555 29.984C115.747 29.76 115.963 29.648 116.203 29.648C116.411 29.648 116.571 29.744 116.683 29.936C116.811 30.128 116.875 30.392 116.875 30.728C116.875 31.368 116.723 31.864 116.419 32.216C115.731 33.064 114.987 33.76 114.187 34.304C113.403 34.848 112.507 35.12 111.499 35.12C110.731 35.12 110.163 34.824 109.795 34.232C109.443 33.64 109.267 32.808 109.267 31.736C108.995 32.824 108.587 33.664 108.043 34.256C107.499 34.832 106.915 35.12 106.291 35.12ZM119.093 35.648C118.261 35.648 117.621 35.456 117.173 35.072C116.741 34.688 116.525 34.256 116.525 33.776C116.525 33.36 116.677 33 116.981 32.696C117.285 32.392 117.733 32.24 118.325 32.24C118.533 32.24 118.773 32.264 119.045 32.312C119.333 32.344 119.549 32.368 119.693 32.384C119.677 31.968 119.581 31.576 119.405 31.208C119.245 30.84 119.037 30.488 118.781 30.152C118.525 29.8 118.285 29.496 118.061 29.24C117.565 30.184 117.069 30.968 116.573 31.592C116.093 32.216 115.565 32.808 114.989 33.368C114.701 33.656 114.397 33.8 114.077 33.8C113.821 33.8 113.613 33.712 113.453 33.536C113.293 33.344 113.213 33.112 113.213 32.84C113.213 32.52 113.325 32.224 113.549 31.952L113.861 31.568C114.741 30.48 115.405 29.584 115.853 28.88C116.141 28.416 116.429 27.864 116.717 27.224C117.021 26.584 117.413 25.712 117.893 24.608C118.197 23.904 118.829 23.552 119.789 23.552C120.237 23.552 120.549 23.592 120.725 23.672C120.901 23.752 120.989 23.88 120.989 24.056C120.989 24.152 120.957 24.304 120.893 24.512C120.829 24.72 120.741 24.928 120.629 25.136C120.341 25.712 120.197 26.2 120.197 26.6C120.197 26.84 120.277 27.104 120.437 27.392C120.613 27.68 120.877 28.04 121.229 28.472C121.741 29.144 122.125 29.72 122.381 30.2C122.653 30.664 122.789 31.176 122.789 31.736C122.789 32.408 122.629 33.048 122.309 33.656C122.005 34.248 121.573 34.728 121.013 35.096C120.453 35.464 119.813 35.648 119.093 35.648ZM132.514 29.384C132.194 29.384 131.93 29.312 131.722 29.168C131.514 29.024 131.41 28.8 131.41 28.496L131.434 28.304C131.706 26.512 132.074 24.472 132.538 22.184C133.002 19.896 133.434 17.92 133.834 16.256C134.09 15.232 134.786 14.72 135.922 14.72C136.946 14.72 137.458 15.048 137.458 15.704C137.458 15.848 137.434 16.008 137.386 16.184C136.97 17.88 136.418 19.936 135.73 22.352C135.042 24.752 134.386 26.84 133.762 28.616C133.586 29.128 133.17 29.384 132.514 29.384ZM131.602 35.12C130.898 35.12 130.362 34.928 129.994 34.544C129.642 34.16 129.466 33.656 129.466 33.032C129.466 32.312 129.666 31.736 130.066 31.304C130.482 30.872 131.058 30.656 131.794 30.656C132.498 30.656 133.026 30.832 133.378 31.184C133.746 31.52 133.93 32.024 133.93 32.696C133.93 33.432 133.722 34.024 133.306 34.472C132.89 34.904 132.322 35.12 131.602 35.12Z" fill="white"/>
</g>
<defs>
<filter id="filter0_d_28_56" x="0.785522" y="0.440002" width="148.673" height="50.352" filterUnits="userSpaceOnUse" color-interpolation-filters="sRGB">
<feFlood flood-opacity="0" result="BackgroundImageFix"/>
<feColorMatrix in="SourceAlpha" type="matrix" values="0 0 0 0 0 0 0 0 0 0 0 0 0 0 0 0 0 0 127 0" result="hardAlpha"/>
<feOffset/>
<feGaussianBlur stdDeviation="6"/>
<feComposite in2="hardAlpha" operator="out"/>
<feColorMatrix type="matrix" values="0 0 0 0 1 0 0 0 0 1 0 0 0 0 1 0 0 0 0.54 0"/>
<feBlend mode="normal" in2="BackgroundImageFix" result="effect1_dropShadow_28_56"/>
<feBlend mode="normal" in="SourceGraphic" in2="effect1_dropShadow_28_56" result="shape"/>
</filter>
</defs>
</svg>
