<svg width="449" height="113" viewBox="0 0 449 113" fill="none" xmlns="http://www.w3.org/2000/svg">
<g filter="url(#filter0_d_152_3639)">
<path d="M91.9684 70.16C92.6618 70.16 93.1951 70.48 93.5684 71.12C93.9951 71.76 94.2084 72.64 94.2084 73.76C94.2084 75.84 93.7018 77.4933 92.6884 78.72C87.4084 85.1733 81.7818 88.4 75.8084 88.4C70.6351 88.4 66.5018 86.4 63.4084 82.4C60.3151 78.4 58.7684 72.6667 58.7684 65.2C58.7684 63.3867 58.8484 61.5733 59.0084 59.76C55.4884 60.4 51.6484 60.88 47.4884 61.2C44.7151 61.4133 42.8218 61.5467 41.8084 61.6C40.7418 67.04 39.2484 73.7067 37.3284 81.6C36.2084 86.24 34.0751 88.56 30.9284 88.56C27.5151 88.56 25.8084 87.0133 25.8084 83.92C25.8084 83.2267 25.9418 82.2667 26.2084 81.04C28.0218 73.7333 29.4618 67.5467 30.5284 62.48L26.6884 62.64C24.9284 62.64 23.6484 62.3467 22.8484 61.76C22.0484 61.12 21.6484 60.1067 21.6484 58.72C21.6484 56.96 22.1551 55.68 23.1684 54.88C24.1818 54.0267 25.8618 53.5467 28.2084 53.44L32.4484 53.28C33.8351 45.76 34.5284 40.0267 34.5284 36.08C34.5284 33.5733 34.1551 31.8667 33.4084 30.96C32.6618 30.0533 31.6751 29.6 30.4484 29.6C26.7151 29.6 22.5018 32.72 17.8084 38.96C17.1151 39.8667 16.3418 40.32 15.4884 40.32C14.7418 40.32 14.1018 39.9733 13.5684 39.28C13.0351 38.5867 12.7684 37.7067 12.7684 36.64C12.7684 34.9867 13.4351 33.2267 14.7684 31.36C17.1151 28.1067 20.0751 25.44 23.6484 23.36C27.2218 21.2267 30.8484 20.16 34.5284 20.16C37.9951 20.16 40.6618 21.36 42.5284 23.76C44.4484 26.1067 45.4084 29.7867 45.4084 34.8C45.4084 39.2267 44.7684 45.2267 43.4884 52.8L51.3284 52.4C54.6884 52.24 57.5684 51.9733 59.9684 51.6C60.9284 45.7333 62.3951 40.24 64.3684 35.12C66.3418 30 68.7951 25.84 71.7284 22.64C74.6618 19.44 77.9418 17.84 81.5684 17.84C84.2351 17.84 86.3418 18.9067 87.8884 21.04C89.4351 23.12 90.2084 25.8667 90.2084 29.28C90.2084 42.5067 83.4618 51.68 69.9684 56.8C69.8084 58.9333 69.7284 61.1467 69.7284 63.44C69.7284 69.04 70.4218 73.0133 71.8084 75.36C73.1951 77.7067 75.1418 78.88 77.6484 78.88C79.8351 78.88 81.8351 78.32 83.6484 77.2C85.4618 76.0267 87.5151 74.0533 89.8084 71.28C90.4484 70.5333 91.1684 70.16 91.9684 70.16ZM81.1684 24.8C79.9951 24.8 78.7418 25.8667 77.4084 28C76.1284 30.1333 74.9018 33.04 73.7284 36.72C72.5551 40.4 71.6218 44.4267 70.9284 48.8C75.1951 47.04 78.3418 44.5333 80.3684 41.28C82.3951 38.0267 83.4084 33.84 83.4084 28.72C83.4084 27.4933 83.1951 26.5333 82.7684 25.84C82.3418 25.1467 81.8084 24.8 81.1684 24.8ZM133.503 70.16C134.196 70.16 134.729 70.48 135.103 71.12C135.529 71.76 135.743 72.64 135.743 73.76C135.743 75.8933 135.236 77.5467 134.223 78.72C132.249 81.12 129.449 83.3333 125.823 85.36C122.249 87.3867 118.409 88.4 114.303 88.4C108.703 88.4 104.356 86.88 101.263 83.84C98.1695 80.8 96.6228 76.64 96.6228 71.36C96.6228 67.68 97.3961 64.2667 98.9428 61.12C100.489 57.92 102.623 55.3867 105.343 53.52C108.116 51.6533 111.236 50.72 114.703 50.72C117.796 50.72 120.276 51.6533 122.143 53.52C124.009 55.3333 124.943 57.8133 124.943 60.96C124.943 64.64 123.609 67.8133 120.943 70.48C118.329 73.0933 113.876 75.1733 107.583 76.72C108.916 79.1733 111.449 80.4 115.183 80.4C117.583 80.4 120.303 79.5733 123.343 77.92C126.436 76.2133 129.103 74 131.343 71.28C131.983 70.5333 132.703 70.16 133.503 70.16ZM113.343 58.56C111.369 58.56 109.689 59.7067 108.303 62C106.969 64.2933 106.303 67.0667 106.303 70.32V70.48C109.449 69.7333 111.929 68.6133 113.743 67.12C115.556 65.6267 116.463 63.8933 116.463 61.92C116.463 60.9067 116.169 60.1067 115.583 59.52C115.049 58.88 114.303 58.56 113.343 58.56ZM159.249 70.16C159.942 70.16 160.476 70.48 160.849 71.12C161.276 71.76 161.489 72.64 161.489 73.76C161.489 75.8933 160.982 77.5467 159.969 78.72C157.676 81.5467 155.169 83.8667 152.449 85.68C149.782 87.4933 146.742 88.4 143.329 88.4C138.636 88.4 135.142 86.2667 132.849 82C130.609 77.7333 129.489 72.2133 129.489 65.44C129.489 58.9333 130.316 51.52 131.969 43.2C133.676 34.88 136.156 27.7333 139.409 21.76C142.716 15.7867 146.636 12.8 151.169 12.8C153.729 12.8 155.729 14 157.169 16.4C158.662 18.7467 159.409 22.1333 159.409 26.56C159.409 32.9067 157.649 40.2667 154.129 48.64C150.609 57.0133 145.836 65.3067 139.809 73.52C140.182 75.7067 140.796 77.28 141.649 78.24C142.502 79.1467 143.622 79.6 145.009 79.6C147.196 79.6 149.116 78.9867 150.769 77.76C152.422 76.48 154.529 74.32 157.089 71.28C157.729 70.5333 158.449 70.16 159.249 70.16ZM149.409 20.72C148.182 20.72 146.796 22.9333 145.249 27.36C143.702 31.7867 142.342 37.28 141.169 43.84C139.996 50.4 139.356 56.6933 139.249 62.72C143.036 56.48 146.049 50.24 148.289 44C150.529 37.7067 151.649 31.9733 151.649 26.8C151.649 22.7467 150.902 20.72 149.409 20.72ZM185.043 70.16C185.736 70.16 186.269 70.48 186.643 71.12C187.069 71.76 187.283 72.64 187.283 73.76C187.283 75.8933 186.776 77.5467 185.763 78.72C183.469 81.5467 180.963 83.8667 178.243 85.68C175.576 87.4933 172.536 88.4 169.123 88.4C164.429 88.4 160.936 86.2667 158.643 82C156.403 77.7333 155.283 72.2133 155.283 65.44C155.283 58.9333 156.109 51.52 157.763 43.2C159.469 34.88 161.949 27.7333 165.203 21.76C168.509 15.7867 172.429 12.8 176.963 12.8C179.523 12.8 181.523 14 182.963 16.4C184.456 18.7467 185.203 22.1333 185.203 26.56C185.203 32.9067 183.443 40.2667 179.923 48.64C176.403 57.0133 171.629 65.3067 165.603 73.52C165.976 75.7067 166.589 77.28 167.443 78.24C168.296 79.1467 169.416 79.6 170.803 79.6C172.989 79.6 174.909 78.9867 176.563 77.76C178.216 76.48 180.323 74.32 182.883 71.28C183.523 70.5333 184.243 70.16 185.043 70.16ZM175.203 20.72C173.976 20.72 172.589 22.9333 171.043 27.36C169.496 31.7867 168.136 37.28 166.963 43.84C165.789 50.4 165.149 56.6933 165.043 62.72C168.829 56.48 171.843 50.24 174.083 44C176.323 37.7067 177.443 31.9733 177.443 26.8C177.443 22.7467 176.696 20.72 175.203 20.72ZM194.037 88.4C190.89 88.4 188.197 87.6267 185.957 86.08C183.77 84.48 182.117 82.4 180.997 79.84C179.877 77.28 179.317 74.5333 179.317 71.6C179.317 67.5467 180.063 63.9467 181.557 60.8C183.103 57.6 185.183 55.12 187.797 53.36C190.41 51.5467 193.343 50.64 196.597 50.64C199.743 50.64 202.437 51.44 204.677 53.04C206.917 54.5867 208.597 56.64 209.717 59.2C210.837 61.76 211.397 64.5067 211.397 67.44C211.397 71.4933 210.623 75.12 209.077 78.32C207.53 81.4667 205.423 83.9467 202.757 85.76C200.143 87.52 197.237 88.4 194.037 88.4ZM194.917 79.76C196.73 79.76 198.25 78.7733 199.477 76.8C200.757 74.8267 201.397 71.9467 201.397 68.16C201.397 65.2267 200.863 63.0133 199.797 61.52C198.73 60.0267 197.45 59.28 195.957 59.28C194.037 59.28 192.437 60.2667 191.157 62.24C189.93 64.16 189.317 67.04 189.317 70.88C189.317 73.92 189.85 76.16 190.917 77.6C191.983 79.04 193.317 79.76 194.917 79.76ZM217.747 100.64C216.573 100.64 215.64 100.373 214.947 99.84C214.253 99.3067 213.907 98.4533 213.907 97.28C213.907 96.8 213.987 96.24 214.147 95.6C214.733 93.1467 215.16 90.88 215.427 88.8C215.747 86.72 215.907 84.4 215.907 81.84C215.907 79.1733 216.52 77.12 217.747 75.68C219.027 74.24 220.653 73.52 222.627 73.52C224.547 73.52 225.987 74.0533 226.947 75.12C227.96 76.1333 228.467 77.52 228.467 79.28C228.467 81.1467 227.907 83.6267 226.787 86.72C225.667 89.8133 224.307 92.8267 222.707 95.76C221.64 97.7333 220.787 99.04 220.147 99.68C219.56 100.32 218.76 100.64 217.747 100.64ZM323.185 36.8C323.185 41.3333 321.585 45.2533 318.385 48.56C315.185 51.8133 310.519 54.16 304.385 55.6C307.692 56.5067 310.199 58 311.905 60.08C313.612 62.1067 314.465 64.4533 314.465 67.12C314.465 71.3333 313.132 74.9867 310.465 78.08C307.852 81.1733 304.012 83.5733 298.945 85.28C293.879 86.9333 287.772 87.76 280.625 87.76C277.959 87.76 275.825 87.68 274.225 87.52C274.172 89.0133 273.532 90.1333 272.305 90.88C271.079 91.6267 269.505 92 267.585 92C265.665 92 264.332 91.5733 263.585 90.72C262.892 89.8667 262.599 88.6133 262.705 86.96C263.185 79.4933 264.119 71.68 265.505 63.52C266.892 55.3067 268.652 47.3867 270.785 39.76C271.159 38.4267 271.905 37.4933 273.025 36.96C274.145 36.4267 275.612 36.16 277.425 36.16C280.679 36.16 282.305 37.0667 282.305 38.88C282.305 39.6267 282.145 40.48 281.825 41.44C280.439 45.6 279.052 51.2533 277.665 58.4C276.279 65.4933 275.292 72.2667 274.705 78.72C277.265 78.9333 279.345 79.04 280.945 79.04C288.412 79.04 293.879 77.9733 297.345 75.84C300.865 73.6533 302.625 70.88 302.625 67.52C302.625 65.1733 301.612 63.2 299.585 61.6C297.612 60 294.279 59.12 289.585 58.96C288.519 58.9067 287.772 58.64 287.345 58.16C286.919 57.68 286.705 56.9067 286.705 55.84C286.705 54.2933 287.025 53.04 287.665 52.08C288.305 51.12 289.479 50.6133 291.185 50.56C294.972 50.4533 298.385 49.8933 301.425 48.88C304.519 47.8667 306.945 46.4533 308.705 44.64C310.465 42.7733 311.345 40.6133 311.345 38.16C311.345 35.0667 309.825 32.64 306.785 30.88C303.745 29.0667 299.079 28.16 292.785 28.16C287.079 28.16 281.559 28.9067 276.225 30.4C270.892 31.84 266.359 33.68 262.625 35.92C260.919 36.9333 259.479 37.44 258.305 37.44C257.345 37.44 256.599 37.12 256.065 36.48C255.585 35.7867 255.345 34.9333 255.345 33.92C255.345 32.5867 255.612 31.44 256.145 30.48C256.732 29.52 258.092 28.4267 260.225 27.2C264.705 24.64 269.959 22.64 275.985 21.2C282.012 19.76 288.172 19.04 294.465 19.04C304.119 19.04 311.319 20.6667 316.065 23.92C320.812 27.1733 323.185 31.4667 323.185 36.8ZM330.055 88.4C327.655 88.4 325.681 87.3067 324.135 85.12C322.641 82.88 321.895 80.1067 321.895 76.8C321.895 72.8 322.161 69.1467 322.695 65.84C323.228 62.48 324.108 58.9333 325.335 55.2C325.868 53.6 326.615 52.4533 327.575 51.76C328.535 51.0667 330.055 50.72 332.135 50.72C333.308 50.72 334.108 50.9067 334.535 51.28C335.015 51.6533 335.255 52.2133 335.255 52.96C335.255 53.3867 334.961 54.8267 334.375 57.28C333.841 59.2533 333.415 61.04 333.095 62.64C332.028 68.24 331.495 71.9733 331.495 73.84C331.495 74.96 331.628 75.76 331.895 76.24C332.161 76.6667 332.588 76.88 333.175 76.88C333.975 76.88 334.961 76.08 336.135 74.48C337.361 72.88 338.641 70.4533 339.975 67.2C341.361 63.9467 342.695 59.9467 343.975 55.2C344.401 53.6 345.041 52.4533 345.895 51.76C346.801 51.0667 348.135 50.72 349.895 50.72C351.121 50.72 351.975 50.88 352.455 51.2C352.935 51.4667 353.175 52 353.175 52.8C353.175 54.1333 352.508 57.7867 351.175 63.76C349.681 70.5867 348.935 74.8 348.935 76.4C348.935 77.4133 349.148 78.2133 349.575 78.8C350.001 79.3333 350.561 79.6 351.255 79.6C352.321 79.6 353.575 78.96 355.015 77.68C356.508 76.3467 358.481 74.2133 360.935 71.28C361.575 70.5333 362.295 70.16 363.095 70.16C363.788 70.16 364.321 70.48 364.695 71.12C365.121 71.76 365.335 72.64 365.335 73.76C365.335 75.8933 364.828 77.5467 363.815 78.72C361.521 81.5467 359.041 83.8667 356.375 85.68C353.761 87.4933 350.775 88.4 347.415 88.4C344.855 88.4 342.961 87.4133 341.735 85.44C340.561 83.4667 339.975 80.6933 339.975 77.12C339.068 80.7467 337.708 83.5467 335.895 85.52C334.081 87.44 332.135 88.4 330.055 88.4ZM373.428 90.16C370.654 90.16 368.521 89.52 367.028 88.24C365.588 86.96 364.868 85.52 364.868 83.92C364.868 82.5333 365.374 81.3333 366.388 80.32C367.401 79.3067 368.894 78.8 370.868 78.8C371.561 78.8 372.361 78.88 373.268 79.04C374.228 79.1467 374.948 79.2267 375.428 79.28C375.374 77.8933 375.054 76.5867 374.468 75.36C373.934 74.1333 373.241 72.96 372.388 71.84C371.534 70.6667 370.734 69.6533 369.988 68.8C368.334 71.9467 366.681 74.56 365.028 76.64C363.428 78.72 361.668 80.6933 359.748 82.56C358.788 83.52 357.774 84 356.708 84C355.854 84 355.161 83.7067 354.628 83.12C354.094 82.48 353.828 81.7067 353.828 80.8C353.828 79.7333 354.201 78.7467 354.948 77.84L355.988 76.56C358.921 72.9333 361.134 69.9467 362.628 67.6C363.588 66.0533 364.548 64.2133 365.508 62.08C366.521 59.9467 367.828 57.04 369.428 53.36C370.441 51.0133 372.548 49.84 375.748 49.84C377.241 49.84 378.281 49.9733 378.868 50.24C379.454 50.5067 379.748 50.9333 379.748 51.52C379.748 51.84 379.641 52.3467 379.428 53.04C379.214 53.7333 378.921 54.4267 378.548 55.12C377.588 57.04 377.108 58.6667 377.108 60C377.108 60.8 377.374 61.68 377.908 62.64C378.494 63.6 379.374 64.8 380.548 66.24C382.254 68.48 383.534 70.4 384.388 72C385.294 73.5467 385.748 75.2533 385.748 77.12C385.748 79.36 385.214 81.4933 384.148 83.52C383.134 85.4933 381.694 87.0933 379.828 88.32C377.961 89.5467 375.828 90.16 373.428 90.16ZM419.564 69.28C418.497 69.28 417.617 69.04 416.924 68.56C416.231 68.08 415.884 67.3333 415.884 66.32L415.964 65.68C416.871 59.7067 418.097 52.9067 419.644 45.28C421.191 37.6533 422.631 31.0667 423.964 25.52C424.817 22.1067 427.137 20.4 430.924 20.4C434.337 20.4 436.044 21.4933 436.044 23.68C436.044 24.16 435.964 24.6933 435.804 25.28C434.417 30.9333 432.577 37.7867 430.284 45.84C427.991 53.84 425.804 60.8 423.724 66.72C423.137 68.4267 421.751 69.28 419.564 69.28ZM416.524 88.4C414.177 88.4 412.391 87.76 411.164 86.48C409.991 85.2 409.404 83.52 409.404 81.44C409.404 79.04 410.071 77.12 411.404 75.68C412.791 74.24 414.711 73.52 417.164 73.52C419.511 73.52 421.271 74.1067 422.444 75.28C423.671 76.4 424.284 78.08 424.284 80.32C424.284 82.7733 423.591 84.7467 422.204 86.24C420.817 87.68 418.924 88.4 416.524 88.4Z" fill="white"/>
</g>
<defs>
<filter id="filter0_d_152_3639" x="0.768311" y="0.799988" width="447.276" height="111.84" filterUnits="userSpaceOnUse" color-interpolation-filters="sRGB">
<feFlood flood-opacity="0" result="BackgroundImageFix"/>
<feColorMatrix in="SourceAlpha" type="matrix" values="0 0 0 0 0 0 0 0 0 0 0 0 0 0 0 0 0 0 127 0" result="hardAlpha"/>
<feOffset/>
<feGaussianBlur stdDeviation="6"/>
<feComposite in2="hardAlpha" operator="out"/>
<feColorMatrix type="matrix" values="0 0 0 0 1 0 0 0 0 1 0 0 0 0 1 0 0 0 0.54 0"/>
<feBlend mode="normal" in2="BackgroundImageFix" result="effect1_dropShadow_152_3639"/>
<feBlend mode="normal" in="SourceGraphic" in2="effect1_dropShadow_152_3639" result="shape"/>
</filter>
</defs>
</svg>
