<svg width="38" height="45" viewBox="0 0 38 45" fill="none" xmlns="http://www.w3.org/2000/svg">
<path fill-rule="evenodd" clip-rule="evenodd" d="M38.0009 14.9503C38.0009 10.0444 35.6543 6.34685 32.2336 3.96846C28.9372 1.67643 24.7325 0.643347 20.6851 0.514073C16.6178 0.384158 12.3738 1.15373 8.83752 2.8233C5.3381 4.47545 2.11044 7.23315 0.996306 11.2908C0.502769 13.0882 1.5598 14.9454 3.35723 15.439C5.15461 15.9325 7.01187 14.8755 7.50541 13.0781C7.90996 11.6044 9.23859 10.0984 11.7193 8.92726C14.163 7.77346 17.3229 7.16012 20.4697 7.26069C23.6364 7.36182 26.4559 8.1725 28.3802 9.51046C30.1802 10.7621 31.2509 12.4808 31.2509 14.9503C31.2509 17.2523 29.8853 19.0139 27.2065 20.4203C24.4955 21.8437 21.0667 22.5073 18.6833 22.6429C16.8967 22.7446 15.5 24.223 15.5 26.0124V29.75C15.5 31.6139 17.0111 33.125 18.875 33.125C20.739 33.125 22.25 31.6139 22.25 29.75V29.0171C24.8002 28.5872 27.7217 27.7736 30.3444 26.3966C34.191 24.377 38.0009 20.7611 38.0009 14.9503ZM18.875 35.375C16.3898 35.375 14.375 37.3898 14.375 39.875C14.375 42.3602 16.3898 44.375 18.875 44.375C21.3603 44.375 23.375 42.3602 23.375 39.875C23.375 37.3898 21.3603 35.375 18.875 35.375Z" fill="#BCC1D1"/>
</svg>
