<svg width="153" height="85" viewBox="0 0 153 85" fill="none" xmlns="http://www.w3.org/2000/svg">
<g clip-path="url(#clip0_183_2839)">
<path d="M0 23.1315C0 25.0755 1.57582 26.651 3.5197 26.651H7.72172V70.4368H3.5197C1.57582 70.4369 0 72.0128 0 73.9565C0 75.9002 1.57582 77.4762 3.5197 77.4762H18.9628C20.9065 77.4762 22.4823 75.9004 22.4823 73.9565C22.4823 72.0126 20.9065 70.4368 18.9628 70.4368H14.7608V26.6512H81.4805C83.4242 26.6512 85.0002 25.0753 85.0002 23.1316H0V23.1315Z" fill="#BCC1D1"/>
<path d="M69.3919 7.52366H15.6082C8.12886 7.52366 1.86443 12.8129 0.351196 19.8465H84.6491C83.1359 12.8129 76.8714 7.52366 69.3919 7.52366Z" fill="#BCC1D1"/>
<path d="M76.88 52.6552H26.0075C24.0638 52.6552 22.4878 54.231 22.4878 56.1747V64.9996C22.4878 66.9433 24.0636 68.5193 26.0075 68.5193H30.9245V73.9568C30.9245 75.9005 32.5004 77.4765 34.4441 77.4765C36.3878 77.4765 37.9638 75.9007 37.9638 73.9568V68.5193H64.9237V73.9568C64.9237 75.9005 66.4995 77.4765 68.4434 77.4765C70.3873 77.4765 71.9629 75.9007 71.9629 73.9568V68.5193H76.88C78.8237 68.5193 80.3997 66.9435 80.3997 64.9996V56.1747C80.3997 54.231 78.824 52.6552 76.88 52.6552Z" fill="#BCC1D1"/>
</g>
<g clip-path="url(#clip1_183_2839)">
<path d="M135.236 24.1596H106.686C106.001 24.1596 105.446 24.7148 105.446 25.3998V29.8607C105.446 30.5456 106.001 31.1008 106.686 31.1008H135.236C135.92 31.1008 136.476 30.5456 136.476 29.8607V25.3998C136.476 24.7148 135.92 24.1596 135.236 24.1596ZM133.995 28.6206H107.926V26.6399H133.995V28.6206Z" fill="#BCC1D1"/>
<path d="M100.887 39.7251H118.73C119.415 39.7251 119.97 39.1699 119.97 38.485C119.97 37.8001 119.415 37.2449 118.73 37.2449H100.887C100.202 37.2449 99.6466 37.8001 99.6466 38.485C99.6466 39.1699 100.202 39.7251 100.887 39.7251Z" fill="#BCC1D1"/>
<path d="M123.786 39.7251H126.016C126.701 39.7251 127.256 39.1699 127.256 38.485C127.256 37.8001 126.701 37.2449 126.016 37.2449H123.786C123.101 37.2449 122.546 37.8001 122.546 38.485C122.546 39.1699 123.101 39.7251 123.786 39.7251Z" fill="#BCC1D1"/>
<path d="M104.415 67.1324C106.575 67.1324 108.333 65.3749 108.333 63.2147C108.333 61.0544 106.576 59.2968 104.415 59.2968C102.255 59.2968 100.497 61.0543 100.497 63.2147C100.497 65.3749 102.255 67.1324 104.415 67.1324ZM104.415 61.777C105.208 61.777 105.853 62.422 105.853 63.2147C105.853 64.0074 105.208 64.6522 104.415 64.6522C103.623 64.6522 102.978 64.0074 102.978 63.2147C102.978 62.422 103.623 61.777 104.415 61.777Z" fill="#BCC1D1"/>
<path d="M137.416 67.1324C139.576 67.1324 141.334 65.3749 141.334 63.2147C141.334 61.0544 139.576 59.2968 137.416 59.2968C135.255 59.2968 133.498 61.0543 133.498 63.2147C133.498 65.3749 135.255 67.1324 137.416 67.1324ZM137.416 61.777C138.208 61.777 138.853 62.422 138.853 63.2147C138.853 64.0074 138.208 64.6522 137.416 64.6522C136.623 64.6522 135.978 64.0074 135.978 63.2147C135.978 62.422 136.623 61.777 137.416 61.777Z" fill="#BCC1D1"/>
<path d="M150.802 42.3617H147.033V26.388C147.033 22.9736 144.255 20.1958 140.841 20.1958H100.99C97.5757 20.1958 94.7979 22.9736 94.7979 26.388V42.3617H91.0288C90.3439 42.3617 89.7887 42.9169 89.7887 43.6018V54.8093C89.7887 55.4942 90.3439 56.0494 91.0288 56.0494H94.7979V71.3468C94.7979 72.0317 95.3531 72.5869 96.038 72.5869H96.9992V76.228C96.9992 78.5107 98.8563 80.3676 101.139 80.3676H101.882C104.165 80.3676 106.022 78.5106 106.022 76.228V72.5869H135.809V76.228C135.809 78.5107 137.666 80.3676 139.949 80.3676H140.692C142.975 80.3676 144.832 78.5106 144.832 76.228V72.5869H145.793C146.478 72.5869 147.033 72.0317 147.033 71.3468V56.0494H150.802C151.487 56.0494 152.042 55.4942 152.042 54.8093V43.6018C152.042 42.9169 151.487 42.3617 150.802 42.3617ZM94.7698 53.5692H92.2689V44.8419H94.7698V53.5692ZM103.542 76.2281C103.542 77.1431 102.797 77.8875 101.882 77.8875H101.139C100.224 77.8875 99.4793 77.1431 99.4793 76.2281V72.5871H103.542C103.542 72.5871 103.542 76.2281 103.542 76.2281ZM142.351 76.2281C142.351 77.1431 141.607 77.8875 140.692 77.8875H139.949C139.033 77.8875 138.289 77.1431 138.289 76.2281V72.5871H142.351V76.2281ZM144.553 70.1068H97.2781V56.0818H144.553V70.1068V70.1068ZM144.553 53.6016H144.553H139.094C139.028 53.5664 138.959 53.5357 138.886 53.5122L123.124 48.4564C122.471 48.247 121.773 48.6063 121.564 49.2585C121.355 49.9107 121.714 50.609 122.366 50.818L131.044 53.6015H118.425L102.455 48.4564C101.803 48.247 101.104 48.6062 100.895 49.2585C100.686 49.9107 101.045 50.609 101.697 50.818L110.375 53.6015H97.2781V35.1155H144.553V53.6016V53.6016ZM144.553 32.6353H97.2781V26.388C97.2781 24.3412 98.9433 22.676 100.99 22.676H140.841C142.888 22.676 144.553 24.3412 144.553 26.388V32.6353V32.6353ZM149.562 53.5692H147.061V44.8419H149.562V53.5692Z" fill="#BCC1D1"/>
</g>
<defs>
<clipPath id="clip0_183_2839">
<rect width="85" height="85" fill="white"/>
</clipPath>
<clipPath id="clip1_183_2839">
<rect width="62.2535" height="62.2535" fill="white" transform="translate(89.7887 19.1549)"/>
</clipPath>
</defs>
</svg>
